<svg width="30" height="30" viewBox="0 0 30 30" fill="none" xmlns="http://www.w3.org/2000/svg">
<path d="M14.542 29.0859C22.4831 29.0859 29.0842 22.5124 29.0842 14.5731C29.0842 6.64803 22.4689 0.0603638 14.5278 0.0603638C6.57238 0.0603638 0 6.64803 0 14.5731C0 22.5124 6.58668 29.0859 14.542 29.0859ZM14.542 26.6671C7.81276 26.6671 2.43786 21.2888 2.43786 14.5731C2.43786 7.87163 7.79852 2.47917 14.5278 2.47917C21.2428 2.47917 26.6461 7.87163 26.6605 14.5731C26.6748 21.2888 21.257 26.6671 14.542 26.6671ZM14.542 13.7763C16.6092 13.7906 18.2631 12.0263 18.2631 9.70711C18.2631 7.54442 16.6092 5.73743 14.542 5.73743C12.4747 5.73743 10.821 7.54442 10.821 9.70711C10.821 12.0263 12.4747 13.7621 14.542 13.7763ZM7.89828 21.8437H21.1715C21.7417 21.8437 22.0269 21.4595 22.0269 20.9473C22.0269 19.3538 19.6317 15.2419 14.542 15.2419C9.45229 15.2419 7.05713 19.3538 7.05713 20.9473C7.05713 21.4595 7.3423 21.8437 7.89828 21.8437Z" fill="black"/>
</svg>
