<svg width="31" height="30" viewBox="0 0 31 30" fill="none" xmlns="http://www.w3.org/2000/svg">
<path fill-rule="evenodd" clip-rule="evenodd" d="M22.4289 19.7905C24.1232 17.7408 25.1363 15.1409 25.1363 12.3119C25.1363 5.69485 19.5932 0.330658 12.7556 0.330658C5.918 0.330658 0.375 5.69485 0.375 12.3119C0.375 18.9289 5.918 24.2932 12.7556 24.2932C15.6789 24.2932 18.3655 23.3128 20.4835 21.6731L28.2766 29.215C28.8138 29.7349 29.6849 29.7349 30.2221 29.215C30.7593 28.6951 30.7593 27.8521 30.2221 27.3322L22.4289 19.7905ZM12.7556 21.644C7.42985 21.644 3.11245 17.4659 3.11245 12.3119C3.11245 7.15793 7.42985 2.9798 12.7556 2.9798C18.0814 2.9798 22.3988 7.15793 22.3988 12.3119C22.3988 17.4659 18.0814 21.644 12.7556 21.644Z" fill="#0F0F0F"/>
</svg>
